#!OML:ASF F:\VICON\USERDATA\INSTALL\rory3\rory3.ASF
:FULLY-SPECIFIED
:DEGREES
326
root 1.7995 16.3788 31.1281 -156.235 -12.0689 -178.251
lowerback -14.4078 -3.82487 0.683926
upperback -12.0684 -7.25923 2.67374
thorax -4.53046 -4.51028 1.75541
lowerneck -16.2317 0.484047 -1.44385
upperneck 33.1853 3.51613 0.648829
head 13.9921 2.35444 1.32491
rclavicle -5.80824e-014 -2.43511e-014
rhumerus -148.231 -62.2834 118.709
rradius 13.2214
rwrist 122.754
rhand -2.67853 4.12068
rfingers 7.12502
rthumb 23.0225 -24.5243
lclavicle -5.80824e-014 -2.43511e-014
lhumerus 40.806 -47.2955 26.7602
lradius 22.061
lwrist -37.6313
lhand 15.6931 27.34
lfingers 7.12502
lthumb 40.5037 52.412
rfemur -62.9003 -1.63538 25.1333
rtibia 56.4094
rfoot -11.0504 -21.8373
rtoes 15.0582
lfemur -20.5993 -10.3827 -19.7441
ltibia 38.2796
lfoot -46.1614 21.6253
ltoes 1.23865
327
root 1.79816 16.4634 31.0397 -156.276 -12.4346 -177.893
lowerback -14.6437 -3.79254 1.04808
upperback -12.3503 -7.34724 2.84014
thorax -4.73471 -4.61192 1.72636
lowerneck -15.9115 0.414585 -1.14882
upperneck 33.8118 3.65653 0.276362
head 14.2165 2.46363 1.17311
rclavicle -1.34428e-014 8.74653e-015
rhumerus -145.32 -65.2292 116.542
rradius 13.0476
rwrist 119.789
rhand -2.59306 3.85096
rfingers 7.12502
rthumb 23.1045 -24.7837
lclavicle -1.34428e-014 8.74653e-015
lhumerus 40.7449 -45.9055 27.4025
lradius 21.596
lwrist -38.6512
lhand 15.4859 27.6639
lfingers 7.12502
lthumb 40.3088 52.7961
rfemur -62.2091 -1.32221 25.1411
rtibia 55.7625
rfoot -10.744 -21.7693
rtoes 16.5922
lfemur -20.5994 -10.1664 -19.3303
ltibia 38.2944
lfoot -45.6757 21.4648
ltoes 3.67707
328
root 1.80087 16.5571 30.9531 -156.398 -12.7228 -178.014
lowerback -14.8709 -3.9011 0.846259
upperback -12.4638 -7.51321 2.84969
thorax -4.71403 -4.6984 1.81473
lowerneck -16.1018 0.276838 -0.293328
upperneck 34.7787 3.7499 -0.602395
head 14.745 2.55549 0.727267
rclavicle -4.12727e-014 2.10712e-014
rhumerus -149.513 -64.1563 121.649
rradius 13.3496
rwrist 121.786
rhand -2.97082 4.39166
rfingers 7.12502
rthumb 22.742 -24.288
lclavicle -4.12727e-014 2.10712e-014
lhumerus 40.6939 -44.4755 27.949
lradius 21.3798
lwrist -39.6948
lhand 15.0946 27.7791
lfingers 7.12502
lthumb 39.9406 53.0231
rfemur -61.39 -0.89934 24.4918
rtibia 55.131
rfoot -10.5463 -21.9594
rtoes 17.6624
lfemur -20.3683 -10.1656 -19.4498
ltibia 38.1432
lfoot -45.4515 21.5609
ltoes 4.44956
329
root 1.80253 16.6444 30.8815 -156.555 -13.1347 -178.254
lowerback -15.066 -4.09549 0.579806
upperback -12.4015 -7.73041 2.7771
thorax -4.51774 -4.78645 1.82973
lowerneck -15.03 0.349595 -0.589973
upperneck 34.2924 3.66028 0.166112
head 14.2487 2.608 1.045
rclavicle 3.3694e-014 -3.57812e-014
rhumerus -151.344 -64.3112 123.986
rradius 13.4175
rwrist 121.705
rhand -3.12664 4.60485
rfingers 7.12502
rthumb 22.5924 -24.0931
lclavicle 3.3694e-014 -3.57812e-014
lhumerus 41.2096 -43.3362 27.6884
lradius 21.4659
lwrist -40.0816
lhand 15.3887 28.2743
lfingers 7.12502
lthumb 40.2174 53.4344
rfemur -60.3781 -1.19478 24.5182
rtibia 54.4823
rfoot -8.30393 -22.4705
rtoes 11.1639
lfemur -20.2822 -9.31247 -19.6503
ltibia 37.9928
lfoot -44.039 22.3602
ltoes 1.67828
330
root 1.82398 16.7618 30.8012 -156.78 -13.6954 -178.477
lowerback -15.0723 -4.38424 0.078715
upperback -12.2432 -8.00118 2.7575
thorax -4.27613 -4.86679 2.02878
lowerneck -15.9279 0.177472 -0.0877863
upperneck 35.1119 3.44102 -0.0624753
head 14.8479 2.56063 0.873633
rclavicle 2.72087e-014 3.34952e-014
rhumerus -152.824 -64.5071 125.849
rradius 13.4156
rwrist 121.181
rhand -3.33428 4.76318
rfingers 7.12502
rthumb 22.3931 -23.9589
lclavicle 2.72087e-014 3.34952e-014
lhumerus 43.1143 -43.3378 25.4534
lradius 21.8227
lwrist -38.5897
lhand 15.4323 30.176
lfingers 7.12502
lthumb 40.2584 55.3236
rfemur -59.4141 -0.0852846 23.2548
rtibia 53.801
rfoot -10.0751 -23.0923
rtoes 19.4628
lfemur -20.1193 -8.96249 -19.6968
ltibia 37.7381
lfoot -42.8885 21.7389
ltoes 0.537902
331
root 1.82203 16.8768 30.7504 -156.712 -14.1954 -178.807
lowerback -15.1673 -4.53652 -0.18105
upperback -12.2993 -8.18763 2.57456
thorax -4.27929 -4.95486 1.95259
lowerneck -15.6013 0.023562 0.194513
upperneck 35.4131 3.22887 -0.0149881
head 14.9172 2.55907 0.819103
rclavicle 7.83212e-014 -1.91827e-014
rhumerus -153.487 -64.7516 126.809
rradius 13.3951
rwrist 120.674
rhand -3.68613 4.99605
rfingers 7.12502
rthumb 22.0553 -23.7663
lclavicle 7.83212e-014 -1.91827e-014
lhumerus 45.3086 -43.9156 22.749
lradius 22.1561
lwrist -36.5618
lhand 14.8736 31.8901
lfingers 7.12502
lthumb 39.7327 57.1963
rfemur -58.8639 -0.062814 22.584
rtibia 53.1592
rfoot -9.29297 -23.3477
rtoes 20.8383
lfemur -20.3715 -8.99988 -19.9989
ltibia 37.5723
lfoot -41.9398 21.2765
ltoes 0.190593
332
root 1.84199 16.9905 30.7011 -156.627 -14.4553 -179.445
lowerback -15.2445 -4.81948 -1.09086
upperback -12.1513 -8.41685 2.39013
thorax -3.98462 -5.0023 2.19659
lowerneck -16.0671 -0.0904599 0.718528
upperneck 35.9249 3.04642 -0.224254
head 15.2829 2.54034 0.634929
rclavicle 1.89777e-014 7.60351e-015
rhumerus -153.709 -65.4821 127.082
rradius 13.2889
rwrist 119.332
rhand -3.68215 5.06459
rfingers 7.12502
rthumb 22.0592 -23.6973
lclavicle 1.89777e-014 7.60351e-015
lhumerus 46.8998 -43.5215 21.1778
lradius 22.2001
lwrist -35.6225
lhand 14.3995 32.4643
lfingers 7.12502
lthumb 39.2861 57.9018
rfemur -58.3813 0.35472 21.6117
rtibia 52.5601
rfoot -7.34373 -24.1782
rtoes 18.863
lfemur -20.6705 -9.16644 -20.5657
ltibia 37.4191
lfoot -41.2856 20.3434
ltoes 0.376788
333
root 1.85568 17.1133 30.6476 -156.948 -15.0789 -180.063
lowerback -14.96 -5.21706 -1.86109
upperback -11.9955 -8.79334 2.22732
thorax -3.87383 -5.1203 2.41102
lowerneck -15.6643 -0.180452 0.869269
upperneck 36.0142 2.9163 -0.146513
head 15.2304 2.54815 0.620072
rclavicle -4.81276e-014 -1.04859e-014
rhumerus -152.352 -67.0546 125.772
rradius 13.0921
rwrist 117.077
rhand -3.31834 4.90656
rfingers 7.12502
rthumb 22.4084 -23.8137
lclavicle -4.81276e-014 -1.04859e-014
lhumerus 47.4982 -42.9082 20.8873
lradius 22.1466
lwrist -35.6937
lhand 14.1521 32.9717
lfingers 7.12502
lthumb 39.053 58.4765
rfemur -57.3456 0.503817 20.7602
rtibia 52.0128
rfoot -6.0517 -25.3135
rtoes 17.2939
lfemur -20.5984 -9.51941 -21.044
ltibia 37.2821
lfoot -40.2047 20.0671
ltoes -1.16949
334
root 1.85612 17.2254 30.6102 -156.914 -15.0528 -180.414
lowerback -15.032 -5.30649 -2.30812
upperback -12.0248 -8.87614 2.12722
thorax -3.82465 -5.1437 2.53099
lowerneck -14.7529 -0.325681 0.738966
upperneck 36.0141 2.81418 0.00918858
head 15.0107 2.56025 0.685062
rclavicle -5.99056e-014 -1.97791e-014
rhumerus -151.619 -68.218 125.153
rradius 12.9567
rwrist 115.505
rhand -3.0112 4.75915
rfingers 7.12502
rthumb 22.7032 -23.9253
lclavicle -5.99056e-014 -1.97791e-014
lhumerus 47.7956 -42.5281 20.7893
lradius 22.171
lwrist -35.7025
lhand 14.2272 33.8774
lfingers 7.12502
lthumb 39.1238 59.3619
rfemur -56.9836 0.789439 20.1175
rtibia 51.4723
rfoot -3.72514 -26.4689
rtoes 14.9615
lfemur -21.0599 -9.51286 -21.6046
ltibia 37.1814
lfoot -38.7728 20.8861
ltoes -4.29104
